<svg xmlns="http://www.w3.org/2000/svg" xmlns:xlink="http://www.w3.org/1999/xlink" width="20" height="20" version="1.1" viewBox="0 0 20 20"><title>20x20/image--dark</title><desc>Created with Sketch.</desc><g id="Symbols" fill="none" fill-rule="evenodd" stroke="none" stroke-width="1"><g id="20x20/image--dark"><g id="20x20/customize--grey"><rect id="Rectangle" width="20" height="20" x="0" y="0"/></g><path id="Rectangle-8" fill="#1D74F5" fill-rule="nonzero" d="M3.75,5.00585866 L3.75,14.9941413 C3.75,15.6883258 4.31186644,16.25 5.00585866,16.25 L14.9941413,16.25 C15.6883258,16.25 16.25,15.6881336 16.25,14.9941413 L16.25,5.00585866 C16.25,4.31167423 15.6881336,3.75 14.9941413,3.75 L5.00585866,3.75 C4.31167423,3.75 3.75,4.31186644 3.75,5.00585866 Z M2.25,5.00585866 C2.25,3.48355418 3.4831322,2.25 5.00585866,2.25 L14.9941413,2.25 C16.5164458,2.25 17.75,3.4831322 17.75,5.00585866 L17.75,14.9941413 C17.75,16.5164458 16.5168678,17.75 14.9941413,17.75 L5.00585866,17.75 C3.48355418,17.75 2.25,16.5168678 2.25,14.9941413 L2.25,5.00585866 Z"/><path id="Oval-4" fill="#1D74F5" fill-rule="nonzero" d="M7.5,9.75 C6.25735931,9.75 5.25,8.74264069 5.25,7.5 C5.25,6.25735931 6.25735931,5.25 7.5,5.25 C8.74264069,5.25 9.75,6.25735931 9.75,7.5 C9.75,8.74264069 8.74264069,9.75 7.5,9.75 Z M7.5,8.25 C7.91421356,8.25 8.25,7.91421356 8.25,7.5 C8.25,7.08578644 7.91421356,6.75 7.5,6.75 C7.08578644,6.75 6.75,7.08578644 6.75,7.5 C6.75,7.91421356 7.08578644,8.25 7.5,8.25 Z"/><polygon id="Path-2" fill="#1D74F5" fill-rule="nonzero" points="7.072 12.916 9.851 14.818 14.083 10.815 16.413 12.537 17.304 11.331 13.964 8.862 9.699 12.897 6.932 11.002 2.716 14.904 3.735 16.005"/></g></g></svg>