<svg xmlns="http://www.w3.org/2000/svg" xmlns:xlink="http://www.w3.org/1999/xlink" width="20" height="20" version="1.1" viewBox="0 0 20 20"><title>20x20/video--dark</title><desc>Created with Sketch.</desc><g id="Symbols" fill="none" fill-rule="evenodd" stroke="none" stroke-width="1"><g id="20x20/video--dark" fill="#1D74F5" fill-rule="nonzero"><g id="24x24/video--grey"><path id="Rectangle" d="M3.75,7.75 L3.75,15.25 L12.25,15.25 L12.25,7.75 L3.75,7.75 Z M13.75,6.25 L13.75,16.75 L2.25,16.75 L2.25,6.25 L13.75,6.25 Z"/><path id="Rectangle-3" d="M13.75,13.0776431 L17.25,14.2140346 L17.25,9.78447755 L13.75,10.9208691 L13.75,13.0776431 Z M16.816159,8.34825467 C17.8266758,8.02015675 18.75,8.68935903 18.75,9.75282741 L18.75,14.2456848 C18.75,15.307855 17.8264557,15.9782839 16.816159,15.6502575 L12.25,14.167702 L12.25,9.8308102 L16.816159,8.34825467 Z"/><polygon id="Line" points="4.75 4.75 11.25 4.75 11.25 3.25 4.75 3.25"/></g></g></g></svg>